<svg xmlns="http://www.w3.org/2000/svg" viewBox="0 0 100 100"><defs><style>.cls-1,.cls-3{fill:#91cb55;}.cls-2{fill:none;}.cls-2,.cls-3{stroke:#344154;stroke-linecap:round;stroke-linejoin:round;stroke-width:1.5px;}</style></defs><title>icon_vertical_ frat</title><g id="Layer_1" data-name="Layer 1"><path class="cls-1" d="M58.9,64.93a2.43,2.43,0,0,1-.61-.29l-.13,0L48.1,75.28l-6.72-7.13L38,64.62h-.06a2.5,2.5,0,0,1-.62.29l-6.43,1.86L48.09,84.37,65.33,66.8Z"/><path class="cls-2" d="M62.89,33a37.3,37.3,0,0,1-14.88,3,37.23,37.23,0,0,1-14.88-3"/><path class="cls-2" d="M63.65,38.46c1.69.48,2.91,2.5,2.91,5,0,2.73-1.49,4.9-3.44,5.07a18.62,18.62,0,0,1-6.41,10.07l.5,4.33a2.33,2.33,0,0,0,1,1.69,2.37,2.37,0,0,0,.66.32l10.89,3.16a10.34,10.34,0,0,1,4.27,2.24,12.58,12.58,0,0,1,4.32,7.22l2.55,12.8a.6.6,0,0,1-.6.73H68.65l-52.8,0a.6.6,0,0,1-.47-.23.59.59,0,0,1-.13-.51l2.56-12.79a12.6,12.6,0,0,1,4.33-7.22,10.34,10.34,0,0,1,4.27-2.24L37.3,64.92a2.72,2.72,0,0,0,.67-.31,2.4,2.4,0,0,0,1-1.7l.5-4.32a18.72,18.72,0,0,1-6.41-10.08c-1.94-.18-3.43-2.34-3.43-5.08,0-2.48,1.22-4.5,2.92-5"/><path class="cls-2" d="M33.12,33a24,24,0,0,0-.54,5.48"/><path class="cls-2" d="M63.4,38.43A24.07,24.07,0,0,0,62.89,33"/><line class="cls-2" x1="37.97" y1="64.61" x2="48.02" y2="75.04"/><line class="cls-2" x1="58.08" y1="64.61" x2="48.02" y2="75.04"/><line class="cls-2" x1="62.89" y1="32.98" x2="62.89" y2="23.02"/><line class="cls-2" x1="33.13" y1="23.02" x2="33.13" y2="32.97"/><polyline class="cls-3" points="48.12 12.73 72.79 19.34 48.01 26.81 48.01 26.81 23.24 19.32 48.12 12.73"/><line class="cls-2" x1="72.78" y1="23.2" x2="72.78" y2="31.85"/><line class="cls-2" x1="60.09" y1="81.91" x2="69.58" y2="81.91"/><path class="cls-2" d="M75,34.5a3.05,3.05,0,0,1-4.33,0"/></g></svg>