<svg xmlns="http://www.w3.org/2000/svg" viewBox="0 0 100 100"><defs><style>.cls-1{fill:#fff;}.cls-1,.cls-3{stroke:#344154;stroke-linecap:round;stroke-linejoin:round;stroke-width:1.5px;}.cls-2{fill:#f68b1c;}.cls-3{fill:none;}</style></defs><title>icon_vertical_ military</title><g id="Layer_1" data-name="Layer 1"><polyline class="cls-1" points="61.46 69.84 62.3 91.44 46.38 80.47 30.88 92.04 30.36 65.54"/><circle class="cls-1" cx="48.03" cy="39.85" r="31.89" transform="translate(-8.53 66.23) rotate(-64.68)"/><path class="cls-2" d="M57,26.85l-1.23,8.47a5.66,5.66,0,0,0,1.76,5l6.28,5.81h0l-8.44,1.45a5.65,5.65,0,0,0-4.18,3.2l-3.59,7.77L43.6,51a5.67,5.67,0,0,0-4.34-3l-8.5-1,6-6.13a5.68,5.68,0,0,0,1.5-5l-1.66-8.4h0l7.67,3.79A5.68,5.68,0,0,0,49.51,31Z"/><path class="cls-3" d="M68.53,54a24.88,24.88,0,1,0-41-28.21"/></g></svg>