<svg xmlns="http://www.w3.org/2000/svg" viewBox="0 0 100 100"><defs><style>.cls-1{fill:none;stroke:#344154;stroke-linecap:round;stroke-linejoin:round;stroke-width:1.5px;}.cls-2{fill:#f68b1c;}</style></defs><title>icon_vertical_ politics</title><g id="Layer_1" data-name="Layer 1"><path class="cls-1" d="M62.73,28.51V26.75a11.4,11.4,0,0,0-11.4-11.41H44a11.41,11.41,0,0,0-11.4,11.41v1.76"/><line class="cls-1" x1="30.1" y1="32.93" x2="65.19" y2="32.93"/><line class="cls-1" x1="30.1" y1="40.56" x2="65.19" y2="40.56"/><line class="cls-1" x1="30.1" y1="36.05" x2="30.1" y2="37.43"/><line class="cls-1" x1="37.12" y1="36.05" x2="37.12" y2="37.43"/><line class="cls-1" x1="44.14" y1="36.05" x2="44.14" y2="37.43"/><line class="cls-1" x1="51.16" y1="36.05" x2="51.16" y2="37.43"/><line class="cls-1" x1="58.17" y1="36.05" x2="58.17" y2="37.43"/><line class="cls-1" x1="65.19" y1="36.05" x2="65.19" y2="37.43"/><line class="cls-1" x1="30.1" y1="45.46" x2="30.1" y2="56.78"/><line class="cls-1" x1="38.87" y1="45.46" x2="38.87" y2="56.78"/><line class="cls-1" x1="47.65" y1="45.46" x2="47.65" y2="56.78"/><line class="cls-1" x1="56.42" y1="45.46" x2="56.42" y2="56.78"/><line class="cls-1" x1="65.19" y1="45.46" x2="65.19" y2="56.78"/><polyline class="cls-1" points="34.34 68.85 47.65 63.58 60.95 68.85"/><line class="cls-1" x1="60.95" y1="73.55" x2="60.95" y2="80.16"/><line class="cls-1" x1="68.38" y1="73.55" x2="68.38" y2="80.16"/><line class="cls-1" x1="75.8" y1="73.55" x2="75.8" y2="80.16"/><path class="cls-1" d="M83.29,80.74V67.67a1.88,1.88,0,0,0-1.88-1.88H71.93V62.26a5.48,5.48,0,0,0-5.48-5.48H28.84a5.48,5.48,0,0,0-5.48,5.48v3.53H13.88A1.88,1.88,0,0,0,12,67.67V80.54"/><line class="cls-1" x1="34.34" y1="73.55" x2="34.34" y2="80.16"/><line class="cls-1" x1="26.92" y1="73.55" x2="26.92" y2="80.16"/><line class="cls-1" x1="19.49" y1="73.55" x2="19.49" y2="80.16"/><path class="cls-1" d="M12,80.74V67.67a1.88,1.88,0,0,1,1.88-1.88h9.48V62.26a5.48,5.48,0,0,1,5.48-5.48H66.45a5.48,5.48,0,0,1,5.48,5.48v3.53h9.48a1.88,1.88,0,0,1,1.88,1.88V80.54"/><polyline class="cls-1" points="34.37 84.7 12 84.7 12 92.99 83.29 92.99 83.29 84.7 60.92 84.7"/><path class="cls-1" d="M47.12,69.87h1.06A6.12,6.12,0,0,1,54.3,76v8.7a0,0,0,0,1,0,0H41a0,0,0,0,1,0,0V76A6.12,6.12,0,0,1,47.12,69.87Z"/><line class="cls-1" x1="40.99" y1="88.84" x2="54.3" y2="88.84"/><path class="cls-1" d="M51.46,15.34V13.05a2.35,2.35,0,0,0-2.36-2.36H46.22a2.36,2.36,0,0,0-2.36,2.36v2.29"/><line class="cls-1" x1="47.66" y1="10.69" x2="47.66" y2="7.01"/><path class="cls-2" d="M50.81,19.35H44.52a8.05,8.05,0,0,0-1.11.08,7.52,7.52,0,0,0-6.31,7.51V29H58.17l0-2a7.52,7.52,0,0,0-6.82-7.66Z"/></g></svg>