<svg xmlns="http://www.w3.org/2000/svg" viewBox="0 0 100 100"><defs><style>.cls-1{fill:none;stroke:#344154;stroke-linecap:round;stroke-linejoin:round;stroke-width:1.5px;}.cls-2{fill:#f68b1c;}</style></defs><title>icon_vertical_ run</title><g id="Layer_1" data-name="Layer 1"><path class="cls-1" d="M38.34,45.34c-2.62-3-5.29-6.26-5.29-6.26l-4.25,2.1A36.83,36.83,0,0,1,21.42,31,13,13,0,0,1,25.1,15.18,54.24,54.24,0,0,1,37.5,8.24a2,2,0,0,1,2.92,1.85,1,1,0,0,1,0,.32c-1.92,8,5.66,13.94,13.82,12.15a15.44,15.44,0,0,0,2.42-.74,1.9,1.9,0,0,1,2.53,1.25c.31,1.13.76,2.67,1.37,4.52h0S65,43.7,72.65,55.24"/><path class="cls-1" d="M63.2,58.22a87.75,87.75,0,0,0,22,3.83A5.27,5.27,0,0,1,90.37,66a7.3,7.3,0,0,1-.59,5.67c-4.22,7.9-19.49,9.78-19.49,9.78l-2.66-2.17C54,82,37.46,79.61,37.46,79.61l-3.39,3a27.87,27.87,0,0,1-12.67-.92,13,13,0,0,1-8.6-13.8,54.8,54.8,0,0,1,4-13.91,2,2,0,0,1,3.47-.31l0,0c4.31,7,13.86,5.85,18.36-1.19a15,15,0,0,0,1.19-2.23,1.89,1.89,0,0,1,2.67-.9c1,.58,2.18,1,3.92,1.9"/><path class="cls-1" d="M52.87,54.63,46.28,67.36l-4.84.18-1.57-4.3,6.53-12a1.78,1.78,0,0,1,2.32-.7l3.35,1.61A1.77,1.77,0,0,1,52.87,54.63Z"/><path class="cls-1" d="M63.09,58.58l-5.57,13-4.8.65-2-4.12,5.58-12.26a1.79,1.79,0,0,1,2.24-.94c1,.38,2.37.88,3.49,1.28A1.77,1.77,0,0,1,63.09,58.58Z"/><path class="cls-1" d="M12.77,71.17a18.34,18.34,0,0,1,24.87,8.47"/><path class="cls-1" d="M33.05,39.08s-5.28-5.9-7.28-12.73"/><path class="cls-2" d="M86.86,67.12a1.63,1.63,0,0,0-1.76-1.38,76.41,76.41,0,0,1-9-.9,15.73,15.73,0,0,1-4.24,12.6c4.46-.88,12.42-3.24,14.71-7.52A3.69,3.69,0,0,0,86.86,67.12Z"/></g></svg>